<svg xmlns="http://www.w3.org/2000/svg" xmlns:xlink="http://www.w3.org/1999/xlink" width="500" zoomAndPan="magnify" viewBox="0 0 375 374.999991" height="500" preserveAspectRatio="xMidYMid meet" version="1.2"><defs><clipPath id="2f5ee12f11"><path d="M 7.894531 239.660156 L 110.066406 239.660156 L 110.066406 358.203125 L 7.894531 358.203125 Z M 7.894531 239.660156 "/></clipPath><clipPath id="09c42a5a8f"><path d="M 8 191 L 118 191 L 118 310 L 8 310 Z M 8 191 "/></clipPath><clipPath id="f73947cc85"><path d="M 110.394531 180.074219 L 123.871094 298.050781 L 21.492188 309.746094 L 8.015625 191.769531 Z M 110.394531 180.074219 "/></clipPath><clipPath id="d803fc1d9b"><path d="M 117.109375 238.863281 L 21.445312 309.347656 L 8.015625 191.769531 Z M 117.109375 238.863281 "/></clipPath><clipPath id="a62e87e165"><path d="M 138.035156 310.730469 L 236.289062 310.730469 L 236.289062 360.003906 L 138.035156 360.003906 Z M 138.035156 310.730469 "/></clipPath><clipPath id="4ed5688272"><path d="M 150.035156 273.832031 L 236.535156 273.832031 L 236.535156 349.667969 L 150.035156 349.667969 Z M 150.035156 273.832031 "/></clipPath><clipPath id="e424a96c2c"><path d="M 150.035156 311.75 L 236.289062 273.832031 L 236.289062 349.667969 Z M 150.035156 311.75 "/></clipPath><clipPath id="299008eebb"><path d="M 266 276 L 316 276 L 316 362 L 266 362 Z M 266 276 "/></clipPath><clipPath id="6c1ac86f57"><path d="M 314.480469 275.730469 L 316.007812 361.167969 L 267.832031 362.027344 L 266.304688 276.59375 Z M 314.480469 275.730469 "/></clipPath><clipPath id="57f718d3bd"><path d="M 315.242188 318.421875 L 267.832031 361.976562 L 266.304688 276.59375 Z M 315.242188 318.421875 "/></clipPath><clipPath id="ef965d4f50"><path d="M 266.296875 317.183594 L 358.109375 317.183594 L 358.109375 361.953125 L 266.296875 361.953125 Z M 266.296875 317.183594 "/></clipPath><clipPath id="a003684885"><path d="M 312.175781 317.183594 L 358.054688 361.953125 L 266.296875 361.953125 Z M 312.175781 317.183594 "/></clipPath></defs><g id="0015fc8c25"><path style="fill:none;stroke-width:18;stroke-linecap:round;stroke-linejoin:miter;stroke:#ed1c24;stroke-opacity:1;stroke-miterlimit:4;" d="M 9.00238 9.001992 L 235.140346 8.998044 " transform="matrix(-0.00617091,-0.749543,0.749543,-0.00617091,3.483958,367.256342)"/><path style="fill:none;stroke-width:18;stroke-linecap:round;stroke-linejoin:miter;stroke:#ed1c24;stroke-opacity:1;stroke-miterlimit:4;" d="M 9.002397 9.000553 L 143.653448 9.000553 " transform="matrix(0.75,0,0,0.75,3.767734,353.733961)"/><path style="fill:none;stroke-width:18;stroke-linecap:round;stroke-linejoin:miter;stroke:#ed1c24;stroke-opacity:1;stroke-miterlimit:4;" d="M 9.001947 8.998497 L 176.329455 8.998497 " transform="matrix(0,-0.748672,0.748672,0,104.770889,367.200444)"/><path style="fill:none;stroke-width:18;stroke-linecap:round;stroke-linejoin:miter;stroke:#ed1c24;stroke-opacity:1;stroke-miterlimit:4;" d="M 8.997865 8.998351 L 156.240402 8.997615 " transform="matrix(0.683633,0.30586,-0.30586,0.683633,5.675216,180.311179)"/><g clip-rule="nonzero" clip-path="url(#2f5ee12f11)"><path style=" stroke:none;fill-rule:nonzero;fill:#ed1c24;fill-opacity:1;" d="M 7.894531 239.660156 L 110.066406 239.660156 L 110.066406 358.195312 L 7.894531 358.195312 Z M 7.894531 239.660156 "/></g><g clip-rule="nonzero" clip-path="url(#09c42a5a8f)"><g clip-rule="nonzero" clip-path="url(#f73947cc85)"><g clip-rule="nonzero" clip-path="url(#d803fc1d9b)"><path style=" stroke:none;fill-rule:nonzero;fill:#ed1c24;fill-opacity:1;" d="M 110.394531 180.074219 L 123.828125 297.652344 L 21.445312 309.347656 L 8.015625 191.769531 Z M 110.394531 180.074219 "/></g></g></g><path style="fill:none;stroke-width:18;stroke-linecap:round;stroke-linejoin:miter;stroke:#9a989a;stroke-opacity:1;stroke-miterlimit:4;" d="M 9.002264 9.000553 L 143.653314 9.000553 " transform="matrix(0.75,0,0,0.75,130.010022,353.733961)"/><path style="fill:none;stroke-width:18;stroke-linecap:round;stroke-linejoin:miter;stroke:#9a989a;stroke-opacity:1;stroke-miterlimit:4;" d="M 8.997612 9.000431 L 76.020353 9.000431 " transform="matrix(0,-0.749862,0.749862,0,130.00873,367.200093)"/><path style="fill:none;stroke-width:18;stroke-linecap:round;stroke-linejoin:miter;stroke:#9a989a;stroke-opacity:1;stroke-miterlimit:4;" d="M 9.000215 8.99797 L 120.056187 8.99797 " transform="matrix(0,-0.749728,0.749728,0,232.222724,367.196928)"/><path style="fill:none;stroke-width:18;stroke-linecap:round;stroke-linejoin:miter;stroke:#9a989a;stroke-opacity:1;stroke-miterlimit:4;" d="M 9.002037 9.001297 L 149.368634 9.001202 " transform="matrix(0.71114,-0.232872,0.232872,0.71114,129.521672,305.429512)"/><g clip-rule="nonzero" clip-path="url(#a62e87e165)"><path style=" stroke:none;fill-rule:nonzero;fill:#9a989a;fill-opacity:1;" d="M 138.035156 310.730469 L 236.195312 310.730469 L 236.195312 360.003906 L 138.035156 360.003906 Z M 138.035156 310.730469 "/></g><g clip-rule="nonzero" clip-path="url(#4ed5688272)"><g clip-rule="nonzero" clip-path="url(#e424a96c2c)"><path style=" stroke:none;fill-rule:nonzero;fill:#9a989a;fill-opacity:1;" d="M 150.035156 349.667969 L 150.035156 273.832031 L 236.242188 273.832031 L 236.242188 349.667969 Z M 150.035156 349.667969 "/></g></g><path style="fill:none;stroke-width:18;stroke-linecap:round;stroke-linejoin:miter;stroke:#0066b3;stroke-opacity:1;stroke-miterlimit:4;" d="M 9.001956 8.999251 L 143.658215 8.999251 " transform="matrix(0.75,0,0,0.75,257.713377,354.867749)"/><path style="fill:none;stroke-width:18;stroke-linecap:round;stroke-linejoin:miter;stroke:#0066b3;stroke-opacity:1;stroke-miterlimit:4;" d="M 9.001674 9.000709 L 120.057646 9.000709 " transform="matrix(0.00000000130852,-0.749728,0.749728,0.00000000130852,257.708952,368.330834)"/><path style="fill:none;stroke-width:18;stroke-linecap:round;stroke-linejoin:miter;stroke:#0066b3;stroke-opacity:1;stroke-miterlimit:4;" d="M 9.001833 8.999881 L 182.59052 9.000605 " transform="matrix(0.576031,0.4803,-0.4803,0.576031,264.14902,268.35549)"/><g clip-rule="nonzero" clip-path="url(#299008eebb)"><g clip-rule="nonzero" clip-path="url(#6c1ac86f57)"><g clip-rule="nonzero" clip-path="url(#57f718d3bd)"><path style=" stroke:none;fill-rule:nonzero;fill:#0066b3;fill-opacity:1;" d="M 314.480469 275.730469 L 316.007812 361.167969 L 267.832031 362.027344 L 266.304688 276.59375 Z M 314.480469 275.730469 "/></g></g></g><g clip-rule="nonzero" clip-path="url(#ef965d4f50)"><g clip-rule="nonzero" clip-path="url(#a003684885)"><path style=" stroke:none;fill-rule:nonzero;fill:#0066b3;fill-opacity:1;" d="M 266.296875 317.183594 L 358.109375 317.183594 L 358.109375 361.953125 L 266.296875 361.953125 Z M 266.296875 317.183594 "/></g></g><path style="fill:none;stroke-width:18;stroke-linecap:round;stroke-linejoin:miter;stroke:#000000;stroke-opacity:1;stroke-miterlimit:4;" d="M 13.50066 9.000245 L 226.444035 8.997055 " transform="matrix(-0.712598,0.229382,-0.229382,-0.712598,314.407688,220.8519)"/><path style="fill:none;stroke-width:18;stroke-linecap:round;stroke-linejoin:round;stroke:#000000;stroke-opacity:1;stroke-miterlimit:4;" d="M 45.000831 -17.998545 L 9.000622 8.998873 L 45.000862 36.00175 " transform="matrix(-0.712598,0.229382,-0.229382,-0.712598,314.407688,220.8519)"/></g></svg>