<svg xmlns="http://www.w3.org/2000/svg" xmlns:xlink="http://www.w3.org/1999/xlink" width="500" zoomAndPan="magnify" viewBox="0 0 375 374.999991" height="500" preserveAspectRatio="xMidYMid meet" version="1.2"><defs><clipPath id="f57619a54a"><path d="M 4.910156 126.058594 L 181.289062 126.058594 L 181.289062 369 L 4.910156 369 Z M 4.910156 126.058594 "/></clipPath><clipPath id="e804dcd692"><path d="M 49.910156 126.058594 L 136.289062 126.058594 C 161.140625 126.058594 181.289062 146.207031 181.289062 171.058594 L 181.289062 323.835938 C 181.289062 348.691406 161.140625 368.835938 136.289062 368.835938 L 49.910156 368.835938 C 25.058594 368.835938 4.910156 348.691406 4.910156 323.835938 L 4.910156 171.058594 C 4.910156 146.207031 25.058594 126.058594 49.910156 126.058594 Z M 49.910156 126.058594 "/></clipPath><clipPath id="4ac995cd44"><path d="M 4.902344 21 L 181.707031 21 L 181.707031 250 L 4.902344 250 Z M 4.902344 21 "/></clipPath><clipPath id="d16e8da1e1"><path d="M 167.902344 160.675781 L 42.175781 245.714844 C 34.855469 250.667969 25.398438 251.171875 17.589844 247.027344 C 9.785156 242.882812 4.902344 234.765625 4.902344 225.925781 L 4.902344 44.996094 C 4.902344 36.15625 9.785156 28.042969 17.589844 23.898438 C 25.398438 19.753906 34.855469 20.257812 42.175781 25.210938 L 167.902344 110.25 C 176.269531 115.910156 181.285156 125.359375 181.285156 135.460938 C 181.285156 145.566406 176.269531 155.011719 167.902344 160.675781 Z M 167.902344 160.675781 "/></clipPath><clipPath id="4b716b2664"><path d="M 68.789062 135.464844 L 181.289062 135.464844 L 181.289062 274.695312 L 68.789062 274.695312 Z M 68.789062 135.464844 "/></clipPath><clipPath id="612971a741"><path d="M 190.5 277.703125 L 365.644531 277.703125 L 365.644531 368.835938 L 190.5 368.835938 Z M 190.5 277.703125 "/></clipPath><clipPath id="1b9739f903"><path d="M 235.5 277.703125 L 320.3125 277.703125 C 345.164062 277.703125 365.3125 297.851562 365.3125 322.703125 L 365.3125 323.835938 C 365.3125 348.691406 345.164062 368.835938 320.3125 368.835938 L 235.5 368.835938 C 210.644531 368.835938 190.5 348.691406 190.5 323.835938 L 190.5 322.703125 C 190.5 297.851562 210.644531 277.703125 235.5 277.703125 Z M 235.5 277.703125 "/></clipPath><clipPath id="61b42daaaf"><path d="M 190.234375 218.058594 L 365.511719 218.058594 L 365.511719 343 L 190.234375 343 Z M 190.234375 218.058594 "/></clipPath><clipPath id="ec5a06eaf3"><path d="M 201.210938 265.148438 L 323.054688 220.546875 C 332.699219 217.015625 343.457031 218.417969 351.878906 224.300781 C 360.296875 230.183594 365.3125 239.804688 365.3125 250.078125 L 365.3125 311.160156 C 365.3125 321.429688 360.296875 331.054688 351.878906 336.9375 C 343.457031 342.820312 332.699219 344.222656 323.054688 340.691406 L 201.210938 296.085938 C 194.71875 293.710938 190.402344 287.53125 190.402344 280.617188 C 190.402344 273.703125 194.71875 267.527344 201.210938 265.148438 Z M 201.210938 265.148438 "/></clipPath><clipPath id="3832bdd989"><path d="M 190.5 280.621094 L 365.3125 280.621094 L 365.3125 323.269531 L 190.5 323.269531 Z M 190.5 280.621094 "/></clipPath></defs><g id="d2c3fc95d9"><path style="fill:none;stroke-width:25;stroke-linecap:round;stroke-linejoin:miter;stroke:#9a989a;stroke-opacity:1;stroke-miterlimit:4;" d="M 18.747526 12.501807 L 220.235732 12.498718 " transform="matrix(-0.715791,0.223928,-0.223928,-0.715791,359.675839,160.641201)"/><path style="fill:none;stroke-width:25;stroke-linecap:round;stroke-linejoin:round;stroke:#9a989a;stroke-opacity:1;stroke-miterlimit:4;" d="M 62.497459 -25.000482 L 12.499286 12.500802 L 62.500616 49.999534 " transform="matrix(-0.715791,0.223928,-0.223928,-0.715791,359.675839,160.641201)"/><g clip-rule="nonzero" clip-path="url(#f57619a54a)"><g clip-rule="nonzero" clip-path="url(#e804dcd692)"><path style=" stroke:none;fill-rule:nonzero;fill:#ed1c24;fill-opacity:1;" d="M 4.910156 126.058594 L 181.289062 126.058594 L 181.289062 368.578125 L 4.910156 368.578125 Z M 4.910156 126.058594 "/></g></g><g clip-rule="nonzero" clip-path="url(#4ac995cd44)"><g clip-rule="nonzero" clip-path="url(#d16e8da1e1)"><path style=" stroke:none;fill-rule:nonzero;fill:#ed1c24;fill-opacity:1;" d="M 205.175781 -0.00390625 L 205.175781 270.675781 L 4.902344 270.675781 L 4.902344 -0.00390625 Z M 205.175781 -0.00390625 "/></g></g><g clip-rule="nonzero" clip-path="url(#4b716b2664)"><path style=" stroke:none;fill-rule:nonzero;fill:#ed1c24;fill-opacity:1;" d="M 68.789062 135.464844 L 181.289062 135.464844 L 181.289062 274.773438 L 68.789062 274.773438 Z M 68.789062 135.464844 "/></g><g clip-rule="nonzero" clip-path="url(#612971a741)"><g clip-rule="nonzero" clip-path="url(#1b9739f903)"><path style=" stroke:none;fill-rule:nonzero;fill:#0066b3;fill-opacity:1;" d="M 190.5 277.703125 L 365.289062 277.703125 L 365.289062 368.835938 L 190.5 368.835938 Z M 190.5 277.703125 "/></g></g><g clip-rule="nonzero" clip-path="url(#61b42daaaf)"><g clip-rule="nonzero" clip-path="url(#ec5a06eaf3)"><path style=" stroke:none;fill-rule:nonzero;fill:#0066b3;fill-opacity:1;" d="M 158.953125 356.160156 L 158.953125 205.078125 L 365.511719 205.078125 L 365.511719 356.160156 Z M 158.953125 356.160156 "/></g></g><g clip-rule="nonzero" clip-path="url(#3832bdd989)"><path style=" stroke:none;fill-rule:nonzero;fill:#0066b3;fill-opacity:1;" d="M 190.5 280.621094 L 365.257812 280.621094 L 365.257812 323.269531 L 190.5 323.269531 Z M 190.5 280.621094 "/></g></g></svg>