<svg xmlns="http://www.w3.org/2000/svg" xmlns:xlink="http://www.w3.org/1999/xlink" width="500" zoomAndPan="magnify" viewBox="0 0 375 374.999991" height="500" preserveAspectRatio="xMidYMid meet" version="1.2"><defs><clipPath id="dbe2412dcf"><path d="M 197.507812 294.101562 L 358.128906 294.101562 L 358.128906 364.015625 L 197.507812 364.015625 Z M 197.507812 294.101562 "/></clipPath><clipPath id="4c24a559ba"><path d="M 204 252 L 363 252 L 363 365 L 204 365 Z M 204 252 "/></clipPath><clipPath id="42495cb21e"><path d="M 197.507812 345.691406 L 211.507812 233.636719 L 362.523438 252.5 L 348.523438 364.558594 Z M 197.507812 345.691406 "/></clipPath><clipPath id="cf27201cbb"><path d="M 204.507812 289.664062 L 362.320312 252.476562 L 348.320312 364.535156 Z M 204.507812 289.664062 "/></clipPath><clipPath id="f36311b111"><path d="M 18.011719 171.882812 L 174.375 171.882812 L 174.375 364.867188 L 18.011719 364.867188 Z M 18.011719 171.882812 "/></clipPath><clipPath id="625f23dc15"><path d="M 10 56 L 178 56 L 178 291 L 10 291 Z M 10 56 "/></clipPath><clipPath id="abdbb71688"><path d="M 174.820312 52.628906 L 179.648438 287.785156 L 15.167969 291.160156 L 10.339844 56.003906 Z M 174.820312 52.628906 "/></clipPath><clipPath id="c16e4ee35a"><path d="M 177.230469 170.109375 L 15.164062 290.96875 L 10.339844 56.003906 Z M 177.230469 170.109375 "/></clipPath></defs><g id="1612c68c8a"><path style="fill:none;stroke-width:18;stroke-linecap:round;stroke-linejoin:miter;stroke:#0066b3;stroke-opacity:1;stroke-miterlimit:4;" d="M 8.999086 8.997418 L 226.250805 8.997418 " transform="matrix(0.749203,0,0,0.749203,190.543014,355.337233)"/><path style="fill:none;stroke-width:18;stroke-linecap:round;stroke-linejoin:miter;stroke:#0066b3;stroke-opacity:1;stroke-miterlimit:4;" d="M 8.997842 9.000386 L 100.402374 9.000386 " transform="matrix(0,-0.747322,0.747322,0,190.539441,368.833658)"/><path style="fill:none;stroke-width:18;stroke-linecap:round;stroke-linejoin:miter;stroke:#0066b3;stroke-opacity:1;stroke-miterlimit:4;" d="M 8.998226 8.997618 L 152.074587 8.997618 " transform="matrix(0.00000000130849,-0.749709,0.749709,0.00000000130849,353.465343,368.081988)"/><path style="fill:none;stroke-width:18;stroke-linecap:round;stroke-linejoin:miter;stroke:#0066b3;stroke-opacity:1;stroke-miterlimit:4;" d="M 9.001193 9.001245 L 231.195746 8.998836 " transform="matrix(0.727634,-0.179364,0.179364,0.727634,190.453118,287.861758)"/><g clip-rule="nonzero" clip-path="url(#dbe2412dcf)"><path style=" stroke:none;fill-rule:nonzero;fill:#0066b3;fill-opacity:1;" d="M 197.507812 294.101562 L 358.09375 294.101562 L 358.09375 364.015625 L 197.507812 364.015625 Z M 197.507812 294.101562 "/></g><g clip-rule="nonzero" clip-path="url(#4c24a559ba)"><g clip-rule="nonzero" clip-path="url(#42495cb21e)"><g clip-rule="nonzero" clip-path="url(#cf27201cbb)"><path style=" stroke:none;fill-rule:nonzero;fill:#0066b3;fill-opacity:1;" d="M 197.507812 345.691406 L 211.507812 233.636719 L 362.523438 252.5 L 348.523438 364.558594 Z M 197.507812 345.691406 "/></g></g></g><path style="fill:none;stroke-width:18;stroke-linecap:round;stroke-linejoin:miter;stroke:#ed1c24;stroke-opacity:1;stroke-miterlimit:4;" d="M 9.000318 8.998634 L 413.000345 8.998634 " transform="matrix(0,-0.75,0.75,0,7.278369,368.836176)"/><path style="fill:none;stroke-width:18;stroke-linecap:round;stroke-linejoin:miter;stroke:#ed1c24;stroke-opacity:1;stroke-miterlimit:4;" d="M 9.000024 9.001061 L 225.353868 9.001061 " transform="matrix(0.7489,0,0,0.7489,7.279415,355.337233)"/><path style="fill:none;stroke-width:18;stroke-linecap:round;stroke-linejoin:miter;stroke:#ed1c24;stroke-opacity:1;stroke-miterlimit:4;" d="M 9.000946 9.0007 L 268.907213 9.0007 " transform="matrix(0,-0.75,0.75,0,169.542445,368.086646)"/><path style="fill:none;stroke-width:18;stroke-linecap:round;stroke-linejoin:miter;stroke:#ed1c24;stroke-opacity:1;stroke-miterlimit:4;" d="M 8.999879 9.001211 L 267.685768 9.000818 " transform="matrix(0.624898,0.414732,-0.414732,0.624898,12.374716,49.337937)"/><g clip-rule="nonzero" clip-path="url(#f36311b111)"><path style=" stroke:none;fill-rule:nonzero;fill:#ed1c24;fill-opacity:1;" d="M 18.011719 171.882812 L 174.375 171.882812 L 174.375 364.894531 L 18.011719 364.894531 Z M 18.011719 171.882812 "/></g><g clip-rule="nonzero" clip-path="url(#625f23dc15)"><g clip-rule="nonzero" clip-path="url(#abdbb71688)"><g clip-rule="nonzero" clip-path="url(#c16e4ee35a)"><path style=" stroke:none;fill-rule:nonzero;fill:#ed1c24;fill-opacity:1;" d="M 174.820312 52.628906 L 179.648438 287.785156 L 15.167969 291.160156 L 10.339844 56.003906 Z M 174.820312 52.628906 "/></g></g></g><path style="fill:none;stroke-width:18;stroke-linecap:round;stroke-linejoin:miter;stroke:#9a989a;stroke-opacity:1;stroke-miterlimit:4;" d="M 13.500097 9.002616 L 223.730557 9.000374 " transform="matrix(-0.715791,0.223928,-0.223928,-0.715791,364.823712,200.385779)"/><path style="fill:none;stroke-width:18;stroke-linecap:round;stroke-linejoin:round;stroke:#9a989a;stroke-opacity:1;stroke-miterlimit:4;" d="M 44.999478 -18.001394 L 8.999563 8.997181 L 45.001688 35.998816 " transform="matrix(-0.715791,0.223928,-0.223928,-0.715791,364.823712,200.385779)"/></g></svg>